<svg xmlns="http://www.w3.org/2000/svg">
  <defs>
    <linearGradient id="salmonGrad" x1="0" y1="0" x2="1" y2="1">
      <stop offset="0" stop-color="#ffb15c"/>
      <stop offset="1" stop-color="#ff4f1f"/>
    </linearGradient>
    <linearGradient id="cyanGrad" x1="0" y1="0" x2="1" y2="1">
      <stop offset="0" stop-color="#9effff"/>
      <stop offset="1" stop-color="#00a7ff"/>
    </linearGradient>
    <linearGradient id="goldGrad" x1="0" y1="0" x2="1" y2="1">
      <stop offset="0" stop-color="#fff59a"/>
      <stop offset="1" stop-color="#ff9f1a"/>
    </linearGradient>
    <linearGradient id="violetGrad" x1="0" y1="0" x2="1" y2="1">
      <stop offset="0" stop-color="#ff7cff"/>
      <stop offset="1" stop-color="#662dff"/>
    </linearGradient>
    <linearGradient id="nitroGrad" x1="0" y1="0" x2="0" y2="1">
      <stop offset="0" stop-color="#a8f0ff"/>
      <stop offset="0.5" stop-color="#2bb6ff"/>
      <stop offset="1" stop-color="#0a63d6"/>
    </linearGradient>
  </defs>

  <symbol id="nitro" viewBox="0 0 64 64">
    <rect x="22" y="6" width="20" height="6" rx="2" fill="#0a3a66" stroke="#0a63d6" stroke-width="2"/>
    <path d="M28 12h8v4h-8z" fill="#0a3a66"/>
    <rect x="18" y="16" width="28" height="42" rx="12" fill="url(#nitroGrad)" stroke="#063a82" stroke-width="3"/>
    <rect x="22" y="22" width="6" height="28" rx="3" fill="#ffffff" opacity="0.4"/>
    <path d="M30 26 26 38h6l-3 12 11-16h-6l4-8z" fill="#eaffff" stroke="#ffffff" stroke-width="1" stroke-linejoin="round"/>
    <text x="32" y="56" text-anchor="middle" font-size="8" font-weight="900" font-family="Arial,sans-serif" fill="#eaffff" opacity="0.85">N2</text>
  </symbol>

  <symbol id="coin" viewBox="0 0 64 64">
    <circle cx="32" cy="32" r="26" fill="#c48a1a"/>
    <circle cx="32" cy="32" r="24" fill="url(#goldGrad)"/>
    <circle cx="32" cy="32" r="20" fill="none" stroke="#c48a1a" stroke-width="2" opacity=".45"/>
    <circle cx="32" cy="32" r="16" fill="none" stroke="#ffe680" stroke-width="1.5" opacity=".6"/>
    <text x="32" y="39" text-anchor="middle" font-size="24" font-weight="900" font-family="Arial,sans-serif" fill="#9a5200" opacity=".7">S</text>
    <text x="31" y="38" text-anchor="middle" font-size="24" font-weight="900" font-family="Arial,sans-serif" fill="#fff8d0">S</text>
    <ellipse cx="24" cy="24" rx="8" ry="4" fill="#fff" opacity=".25" transform="rotate(-30 24 24)"/>
  </symbol>

  <symbol id="shop" viewBox="0 0 64 64">
    <rect x="12" y="20" width="40" height="32" rx="6" fill="#07172b" stroke="#00ffff" stroke-width="4"/>
    <path d="M18 20 23 10h18l5 10" fill="#132b4a" stroke="#ff8a2a" stroke-width="4" stroke-linejoin="round"/>
    <path d="M20 32h24M20 42h18" stroke="#7effff" stroke-width="4" stroke-linecap="round"/>
  </symbol>

  <symbol id="top" viewBox="0 0 64 64">
    <path d="M21 13h22v12c0 10-6 17-11 17s-11-7-11-17V13Z" fill="url(#goldGrad)" stroke="#fff6b0" stroke-width="4"/>
    <path d="M21 20h-8c1 12 8 17 16 17M43 20h8c-1 12-8 17-16 17" fill="none" stroke="#ffb02e" stroke-width="4" stroke-linecap="round"/>
    <path d="M32 42v9M22 53h20" stroke="#00ffff" stroke-width="4" stroke-linecap="round"/>
  </symbol>

  <symbol id="skins" viewBox="0 0 64 64">
    <ellipse cx="30" cy="33" rx="19" ry="13" fill="url(#salmonGrad)" stroke="#331820" stroke-width="4"/>
    <path d="M47 33 58 22v22Z" fill="#ff6a2a" stroke="#331820" stroke-width="4" stroke-linejoin="round"/>
    <circle cx="22" cy="30" r="3" fill="#091019"/>
    <path d="M14 38c7 5 19 6 29 0" fill="none" stroke="#fff2c5" stroke-width="5" stroke-linecap="round" opacity=".8"/>
  </symbol>

  <symbol id="tap" viewBox="0 0 64 64">
    <circle cx="32" cy="22" r="12" fill="none" stroke="#00ffff" stroke-width="4" opacity=".85"/>
    <path d="M32 34v16M21 43l11 11 11-11" fill="none" stroke="#ff8a2a" stroke-width="5" stroke-linecap="round" stroke-linejoin="round"/>
  </symbol>

  <symbol id="spark" viewBox="0 0 64 64">
    <path d="M32 6 39 25 58 32 39 39 32 58 25 39 6 32 25 25Z" fill="url(#cyanGrad)" stroke="#ffffff" stroke-width="3" stroke-linejoin="round"/>
  </symbol>

  <symbol id="loot-basic" viewBox="0 0 64 64">
    <path d="M14 22 32 12l18 10v22L32 54 14 44Z" fill="#163150" stroke="#00ffff" stroke-width="4" stroke-linejoin="round"/>
    <path d="M32 12v22M14 22l18 12 18-12" fill="none" stroke="#8fffff" stroke-width="3" stroke-linejoin="round"/>
  </symbol>

  <symbol id="loot-rare" viewBox="0 0 64 64">
    <rect x="12" y="24" width="40" height="25" rx="5" fill="#2a1a08" stroke="#ffd36a" stroke-width="4"/>
    <path d="M18 24c2-9 9-12 14-3 5-9 12-6 14 3" fill="none" stroke="#ff8a2a" stroke-width="4" stroke-linecap="round"/>
    <path d="M32 24v25M12 34h40" stroke="#fff59a" stroke-width="4"/>
  </symbol>

  <symbol id="loot-neon" viewBox="0 0 64 64">
    <path d="M32 8 48 26 39 56H25L16 26Z" fill="url(#violetGrad)" stroke="#ffffff" stroke-width="4" stroke-linejoin="round"/>
    <path d="M16 26h32M32 8 25 56M32 8l7 48" stroke="#9effff" stroke-width="3" opacity=".75"/>
  </symbol>

  <symbol id="boost" viewBox="0 0 64 64">
    <path d="M10 34h25L26 54l28-30H31l7-14Z" fill="url(#goldGrad)" stroke="#fff6b0" stroke-width="4" stroke-linejoin="round"/>
  </symbol>

  <symbol id="shield" viewBox="0 0 64 64">
    <path d="M32 7 52 15v15c0 13-8 23-20 28C20 53 12 43 12 30V15Z" fill="#082640" stroke="#00ffff" stroke-width="4" stroke-linejoin="round"/>
    <path d="M22 32 29 39 43 23" fill="none" stroke="#fff" stroke-width="5" stroke-linecap="round" stroke-linejoin="round"/>
  </symbol>

  <symbol id="skin-classic" viewBox="0 0 64 64">
    <use href="#skins"/>
  </symbol>

  <symbol id="skin-tux" viewBox="0 0 64 64">
    <ellipse cx="30" cy="33" rx="19" ry="13" fill="#111827" stroke="#331820" stroke-width="4"/>
    <path d="M47 33 58 22v22Z" fill="#ff6a2a" stroke="#331820" stroke-width="4" stroke-linejoin="round"/>
    <path d="M26 23 32 35 38 23" fill="#fff7da" stroke="#fff7da" stroke-width="2"/>
    <circle cx="22" cy="30" r="3" fill="#ffffff"/>
  </symbol>

  <symbol id="skin-techno" viewBox="0 0 64 64">
    <ellipse cx="30" cy="33" rx="19" ry="13" fill="#0a2238" stroke="#00ffff" stroke-width="4"/>
    <path d="M47 33 58 22v22Z" fill="#00a7ff" stroke="#00ffff" stroke-width="4" stroke-linejoin="round"/>
    <path d="M17 38h25M20 27h18" stroke="#9effff" stroke-width="4" stroke-linecap="round"/>
    <circle cx="22" cy="30" r="3" fill="#ff00ff"/>
  </symbol>

  <symbol id="skin-cosmo" viewBox="0 0 64 64">
    <ellipse cx="30" cy="33" rx="19" ry="13" fill="url(#violetGrad)" stroke="#ffffff" stroke-width="4"/>
    <path d="M47 33 58 22v22Z" fill="#ff7cff" stroke="#ffffff" stroke-width="4" stroke-linejoin="round"/>
    <circle cx="22" cy="30" r="3" fill="#ffff8a"/>
    <path d="M14 42c9 4 21 4 33-4" fill="none" stroke="#00ffff" stroke-width="4" stroke-linecap="round"/>
  </symbol>

  <symbol id="lock" viewBox="0 0 64 64">
    <rect x="15" y="27" width="34" height="25" rx="5" fill="#182032" stroke="#8aa0b8" stroke-width="4"/>
    <path d="M22 27v-7c0-7 4-12 10-12s10 5 10 12v7" fill="none" stroke="#8aa0b8" stroke-width="5" stroke-linecap="round"/>
  </symbol>
</svg>
